# xmcd
#
# Track frame offsets:
#	150
#	17097
#	30297
#	42357
#	51343
#	61909
#	75009
#	86831
#	103853
#	117053
#	129112
#	138097
#	148715
#	161890
#
# Disc length: 2316 seconds
#
# Revision: 1
# Processed by: cddbd v1.5.2PL0 Copyright (c) Steve Scherf et al.
# Submitted via: audiograbber 1.83.01
#
DISCID=ac090a0e
DTITLE=Karaoke - CDGSA_014
DYEAR=1900
DGENRE=Gospel
TTITLE0=America The Beautiful
TTITLE1=Ave Maria
TTITLE2=Swing Low, Sweet Chariot
TTITLE3=When The Saints Go Marching In
TTITLE4=Amazing Grace
TTITLE5=Battle Hymn Of The Republic
TTITLE6=Blessed Assurance
TTITLE7=America The Beautiful
TTITLE8=Ave Maria
TTITLE9=Swing Low, Sweet Chariot
TTITLE10=When The Saints Go Marching In
TTITLE11=Amazing Grace
TTITLE12=Battle Hymn Of The Republic
TTITLE13=Blessed Assurance
EXTD=
EXTT0=
EXTT1=
EXTT2=
EXTT3=
EXTT4=
EXTT5=
EXTT6=
EXTT7=w/Vocal Track
EXTT8=w/Vocal Track
EXTT9=w/Vocal Track
EXTT10=w/Vocal Track
EXTT11=w/Vocal Track
EXTT12=w/Vocal Track
EXTT13=w/Vocal Track
PLAYORDER=
